<svg id="Layer_1" data-name="Layer 1" xmlns="http://www.w3.org/2000/svg" viewBox="0 0 1200 1200"><defs><style>.cls-1{fill:#e9e8e8;}.cls-2{fill:#9dd5c0;}.cls-3{fill:#1d252e;}.cls-4,.cls-6{fill:#fff;}.cls-5,.cls-7,.cls-8{fill:none;}.cls-5,.cls-6,.cls-7{stroke:#1d252e;stroke-linecap:round;stroke-width:4px;}.cls-5{stroke-linejoin:round;}</style></defs><path id="Path-141" class="cls-1" d="M758.14,467.29C647.45,392.45,393.16,193.21,260,309.14S199.75,981.74,592,921.8c147.36-22.52,370-34.95,401.22-104C1045.12,702.94,827.25,514,758.14,467.29Z"/><path class="cls-2" d="M444.84,782.72q-45.9.45-91.7,2.82,1.77-21.54,3.55-43.07,45.85-2.28,91.72-2.64Z"/><path class="cls-2" d="M471.91,768c-1.27,14-14.61,25.63-28.45,26.4-14.45.8-25.15-13.26-24-26.09,1.17-13.24,13.68-27.22,28.43-26.75C461.36,742,473.17,754.22,471.91,768Z"/><path class="cls-2" d="M381.64,769.46c-1.33,14.09-14.44,26.26-28.35,27.75-14.35,1.54-25.05-12.23-23.92-24.93,1.19-13.37,13.48-27.82,28.31-28.11C371.1,743.9,382.93,755.75,381.64,769.46Z"/><path class="cls-3" d="M376.45,769.68a24.91,24.91,0,0,1-22.64,22.2,18.07,18.07,0,0,1-19.12-20c1.12-11.69,10.87-21.66,22.62-22.43C368.57,748.75,377.51,758.53,376.45,769.68Z"/><path class="cls-3" d="M466.64,768a23.57,23.57,0,0,1-22.74,21.12,19.1,19.1,0,0,1-19.2-20.87c1.07-11.59,11.06-21.2,22.72-21.35C458.75,746.74,467.66,756.75,466.64,768Z"/><path class="cls-4" d="M194.55,782.18c7.63,8.67,12,19.68,14,31L490.2,798.48l513.05,60.22,1.13-11.71.25-7.23A3043.35,3043.35,0,0,0,194.55,782.18Z"/><path class="cls-5" d="M282.07,777.55q-36.36,1.23-72.7,3.72"/><path class="cls-5" d="M1000.27,838.51q-36.64-7.25-72.72-13.68"/><path class="cls-3" d="M202.19,793.51a73.25,73.25,0,0,1,7.29,27.5,3043.62,3043.62,0,0,1,795,58.82c.39-11.19.59-16.79,1-28A3043.43,3043.43,0,0,0,202.19,793.51Z"/><path class="cls-2" d="M943.58,520.89q-33.63-8.6-67.48-16.22l-16.92,200.1q33.9,7.34,67.55,15.62Q935.16,620.64,943.58,520.89Z"/><path class="cls-3" d="M532,625.21q52.39,2.25,104.6,7l11.61-137.83q-27.36-2.65-54.74-4.71-28.06,33.57-55.76,67.42Q534.82,591.16,532,625.21Z"/><path class="cls-3" d="M758.72,567.27q-49.79-7.74-99.85-13.22a20.5,20.5,0,0,1-17.94-23.61q15.92-58.26,31.89-116.5c1.66-10,9.47-17,18-15.91q31.35,3.95,62.58,8.72c8.54,1.34,15,10.22,15,20.44q5.93,60.92,11.83,121.83A18.37,18.37,0,0,1,758.72,567.27Z"/><path class="cls-3" d="M875.46,589.46q-49.53-10.8-99.48-19.37c-11.54-2.17-19.73-13-17.9-24.72Q774,488.1,789.89,430.83c1.66-9.93,9.45-16.37,18-14.79q31.25,5.88,62.32,12.58c8.8,2,15.36,12.74,14.92,21.36q5.89,61.27,11.77,122.56C897,584.12,886.6,592,875.46,589.46Z"/><path class="cls-3" d="M877,677.46a2065.7,2065.7,0,0,0-233.27-37.3q4.46-52.83,8.9-105.66a2066.26,2066.26,0,0,1,233.21,38.39Q881.45,625.18,877,677.46Z"/><path id="Path-36" class="cls-4" d="M711.07,455.84c-5.68-2-8.52-3-14.2-5q-1.39-14.41-2.78-28.84l5.3-5.85c1-3.51,1.47-5.27,2.46-8.78l6.83-.33,3.5-6.2c-.72-2.77-1.07-4.16-1.79-6.93l-2.12-2.16c1.18-4.69,1.77-7,3-11.71q-22.69-3-45.43-5.51l-2.67,1.39c-2.45,4.62-3.67,6.94-6.13,11.57-1.33,5.29-2,7.93-3.34,13.22,1.09,4.58,1.64,6.87,2.74,11.45l5.15,7.14,7.43,5.09,2.8-.19c.88,10.65,1.31,16,2.19,26.62-7.87-.64-11.81-.94-19.68-1.49,7.18,8.39,10.77,12.61,18,21.07q19.51,1.2,39,2.81C711.19,466.27,711.15,462.79,711.07,455.84Z"/><path id="Path-20" class="cls-5" d="M705.48,453.48q-5.25-1.71-8.61-2.64A284.25,284.25,0,0,0,694.09,422a22.4,22.4,0,0,0,5.3-5.85q1.29-2.46,2.4-8.73c7.37.2,10.77-2.65,10.2-8.61s-4.17-8.47-10.79-7.48"/><path id="Path-21" class="cls-5" d="M660.08,382.41q-7.73,12.54-6,21.58c2.11,9.73,8.31,18.93,18.63,20.91l1.3,25.92c-4-.36-6-.53-9.91-.86"/><path id="Path-22" class="cls-5" d="M709.17,388.15a15.19,15.19,0,0,0-9.31-1.44"/><path id="Path-23" class="cls-3" d="M710.66,385q-7.47-2.91-12.65-2.63c-.47-1.56-1-3.3-1.71-5.23-9.24,11.13-22.78,4.43-33.25-.27-22.92-13.71,1.89-50.43,24.13-36.35,8.3,5.65,13,10.4,14.18,14.17,6.32.59,10.22,2.69,11.7,6.27Q717.49,368.24,710.66,385Z"/><path id="Path-24" class="cls-2" d="M738.71,599.4l.63,56.16c-22.18,3.93-45.36,8.22-68,5.64-23.68-4-46.93-14.1-69.39-22.33q5.22-28.49,10.46-57c-1.32-18.39-2.29-36.82-2.75-55.25-.4-16.45-5.3-50.67,5.14-60.69,8.8-8.46,36.8-22,42.64-19.79,4,1.55,12.25,16.42,22.69,17.93,12,1.27,25.36-9.6,31.67-10.3,8.33-.93,38.58,11.18,41.61,16.15C762.94,485.51,743.83,556.37,738.71,599.4Z"/><path class="cls-6" d="M604,478.56c1.54,16.83,6.9,67.42,19.44,68.59,9.43.88,8.38-33.28,6.88-43.85l-11.4-29.88"/><path class="cls-3" d="M751.6,638.06h0Z"/><path class="cls-3" d="M638.51,609.38h0Z"/><path id="Path-24-2" data-name="Path-24" class="cls-2" d="M726.07,520.65c2.19-10.72,11.6-49.51,27.36-50.69,12.8,10.15,16.87,36.37,21.11,51,4.44,15.35,13.78,44.79,11.25,47.78-3,3.5-38.51,7-45.64,3.56C732.86,568.75,723.53,533.13,726.07,520.65Z"/><path class="cls-5" d="M729.49,515.57c-2.5,9.67-1.1,20.28.39,30"/><path class="cls-3" d="M669.32,591.85a75.47,75.47,0,0,1-8.61-.51c-17.12-2-39-12-45.69-48.48-4-21.87-1.66-46.87.08-65.13.26-2.71.51-5.26.71-7.62,1.46-17,7.25-29.38,17.22-36.92,9.55-7.25,22.17-9.44,37.49-6.52l-4.11,21.61c-8.95-1.7-15.71-.88-20.1,2.44-6,4.52-8,14.07-8.58,21.28-.21,2.42-.46,5-.73,7.82-1.61,17-3.83,40.2-.35,59,2.43,13.12,7.64,28.45,26.58,30.63,10.63,1.22,18.69-.57,24.64-5.48,12.33-10.17,15.64-33.86,17.14-53.37.16-2.07.12-6,.08-10.14-.1-9.11-.23-21.58,1.42-32.3,2.53-16.39,9.12-25.91,19.58-28.3l2-.45,2,.28c9.62,1.38,14.32,2.08,24,3.58l-3.37,21.74c-8.12-1.27-12.7-2-19.75-3-.85,1.53-2.25,5.08-3.1,12.67-.93,8.31-.83,17.85-.75,25.51.06,5.05.1,9-.13,12.07-2,25.34-6.46,53.3-25.08,68.65C693.11,588.21,682.18,591.85,669.32,591.85Z"/><path id="Path-108" class="cls-6" d="M597.92,477.3c-1.33-5.59,2.2-14.83,2.2-14.83,5.24-5,21.44-18.62,25.8-9.6,4.28,8.86-.71,20.21-7.68,28.2C614.82,487.43,599.24,482.89,597.92,477.3Z"/><path class="cls-6" d="M721.08,487.56c-2.9,17-10.93,66.32,1.17,71.34,8.92,3.7,16.69-29.38,17.9-39.59q-1.67-16-3.35-31.95"/><path id="Path-108-2" data-name="Path-108" class="cls-6" d="M737.21,492.71c2.24-5.16.3-14.94.3-14.94-4.23-5.9-17.57-22.87-23.81-15.08-6.56,8.18-1.33,20,2.85,29.25C718.85,498.91,735,497.88,737.21,492.71Z"/><path id="Path-93" class="cls-4" d="M766,487.91c-4.79-20.18-17.3-47.25-13.16-63.25,5.58-21.58,29.23-48.9,44.28-72.75,4.12-10.63,14.05-35.85,29.23-31.16,16.11,7.85-5.18,35.13-13.26,42.18-12.42,22.15-36.58,52.83-35.88,70.15.38,9.56,10.57,26.3,13.9,39.92"/><path id="Path-93-2" data-name="Path-93" class="cls-7" d="M761.59,472.71c-3.44-15.12-12.29-35.68-8.73-48,6.38-22.15,29.23-48.9,44.28-72.75,4.12-10.63,14.05-35.85,29.23-31.16,16.11,7.85-5.18,35.13-13.26,42.18-12.42,22.15-36.39,52.55-35.88,70.15.2,7,7.07,19.15,9.17,29.05"/><path id="Path-102" class="cls-3" d="M797.63,398.3q-3.32-13.17,1.76-19.85c8.06-9.78,22.55-13.92,34.7-10,17.8,4.35,30.67,22.89,34,40,1.22,14,.07,22.73-4,36.19q-4.74,5.67-9.84,4.94c-5.09-.72-15.37-4.74-18.74-8.91C823.22,426.24,810.36,412.31,797.63,398.3Z"/><path id="Path-103" class="cls-4" d="M799.88,398.55,795,410.62c.52,5.94.79,8.91,1.31,14.85,2.88,4.58,4.31,6.88,7.19,11.47l7.95,5.9c-.09,6-.14,9-.23,15.05.08,5.47.12,8.2.21,13.67-5.95-.17-8.93-.24-14.89-.36,1,6.33,1.45,9.5,2.41,15.83q20.55,6.6,41,13.49c6-6.8,9.05-10.19,15.08-16.93-2.15-2.29-3.22-3.43-5.37-5.7-5.5-1.62-8.25-2.41-13.75-4l-1.8-28.23,7.75-9c1.48-3.6,2.22-5.41,3.71-9,2.58.06,3.87.1,6.44.18l2.13-9.83-4.5-5.79-8.45-3-5.28-10c.5-3.06.75-4.59,1.24-7.65-9.26,3.37-13.89,5.09-23.17,8.58C808.31,399.51,805.5,399.18,799.88,398.55Z"/><path id="Path-89" class="cls-3" d="M768,633.09c-10.31,34.3-21.13,68.8-28.77,103.69-2.73,12.5-5.77,25.19-7.37,37.94,44,9.8,125.7,23.84,134.43,16,10.08-9.07,13.61-95.75,3.07-138.26C857.55,619,792.17,630.13,768,633.09Z"/><path id="Path-86" class="cls-7" d="M799.88,398.55a32.73,32.73,0,0,0-4.31,24.26c1.68,8.83,7.25,15.49,16.7,20.09,0,11,0,16.51,0,27.52-4.24-.72-8.41.14-10.69.27"/><path id="Path-87" class="cls-7" d="M800.35,397.69c2.1,1.73,6.3,2.2,12.6,1.46s14.35-3.28,24.15-7.55a15.28,15.28,0,0,0-.16,10.57,17.27,17.27,0,0,0,6.08,8.72q8-1,10.15,5.6c2.11,6.55-.08,11.38-2.19,12a9,9,0,0,1-5.46-.75q0,4.8-4.59,10.4T834.11,444q.35,15,.7,29.94c3.54,1.17,5.3,1.77,8.84,2.95"/><path id="Path-88" class="cls-2" d="M797.33,468.82c.34,11.33,10.68,21.56,21.49,23.36,15,2.51,22.45-16,36.48-15.33,10.41,2.94,30.45,8.66,29.74,22.72-.84,16.65-7.8,33.87-13.59,49.64L870,662.81q-52.9-10.14-106.21-17.68c1.66-11.59,3.29-23.18,5.12-34.75,3.3-20.59,12-46.89,10.24-61.73-1.62-13.92-18.7-41.49-15.15-61.31C771.23,477.75,784,464.7,797.33,468.82Z"/><path id="Path-98" class="cls-7" d="M809.7,441.49a18.14,18.14,0,0,0,6.08,2.76,27.54,27.54,0,0,0,9.52.79"/><path id="Path-99" class="cls-7" d="M789,496.28c-6.68,7-12.09,18.54-13.12,28.09-1.08,10,0,18.23,3.76,24.19l-7,33"/><path id="Path-104" class="cls-7" d="M853,452a8.88,8.88,0,0,0,5,.71c2-.2,4.22-1.52,6.68-4"/><path id="Path-105" class="cls-3" d="M853.51,455.36q1.85,1.2,6.47.92t7.55-4.79q3.81.56,7.45,8.54c3.65,8,1.17,16.93,4.16,22.31A36.77,36.77,0,0,0,888.82,493c-11.38-.13-23.86-3.91-29.77-14.43Q851.55,464.9,853.51,455.36Z"/><path class="cls-3" d="M799.31,610.31a71.14,71.14,0,0,1-12.9-1.24c-30.38-5.58-41.13-30.54-44.8-50.5-4.05-22-1.69-47.19,0-65.57.24-2.6.48-5.08.68-7.4,1.45-16.86,7.27-29,17.31-36.11,9.76-6.91,22.54-8.39,38-4.4l-5.5,21.3c-8.89-2.3-15.55-1.94-19.78,1.05-5.61,4-7.51,13.1-8.1,20.05-.21,2.37-.45,4.9-.69,7.56-4.08,43.5-5.36,86.46,26.83,92.38,10.53,1.94,18.44.72,24.2-3.72,11.95-9.19,15.18-32.43,16.66-51.64.15-1.9.11-5.66.08-9.64-.22-22.59-.54-56.74,21.6-60.4l2-.33,2,.42c9.59,2,14.27,3,23.84,5.17L876,488.76c-7.89-1.76-12.41-2.75-19.19-4.18-.82,1.72-2.06,5.38-2.82,12.65a229.48,229.48,0,0,0-.71,25c.05,4.86.09,8.7-.13,11.54-1.95,25.24-6.47,53-25.18,67.39C820.08,607.25,810.46,610.31,799.31,610.31Z"/><path id="Path-93-3" data-name="Path-93" class="cls-4" d="M880.34,494.59c-3.33-13.83-13.5-30.9-13.84-40.58-.6-17.11,23.38-46.91,35.74-68.46,8.34-6.79,29.1-33.34,13.19-41.55-14.9-5.5-25,19.43-29.1,29.78-15,23.14-38.63,49.7-44.11,70.66-4.2,16.09,8.34,43.48,13.11,63.87C863.63,520.33,886.3,508.12,880.34,494.59Z"/><path id="Path-93-4" data-name="Path-93" class="cls-7" d="M850.92,492.9c-3.42-15.25-12.3-36.06-8.7-48.46,6.26-21.55,29.12-47.52,44.11-70.66,4.07-10.35,14.2-35.28,29.1-29.78,15.91,8.21-4.85,34.76-13.19,41.55C889.88,407.1,866.07,436.73,866.5,454c.18,7.12,7,19.45,9.14,29.48"/><path class="cls-2" d="M572.48,585.92q1.72-20.71,3.47-41.42c1.87-22.38-15.35-42.58-37.94-43.56q-42.54-1.68-85.09-1.72c-23.05.14-42.77,19.47-44.74,42.19q-30,23.26-59.48,47.05c-29.7,24-50.95,61.13-53.65,99.57-2.22,27.08-3.85,49.1-6.07,76.18-.6,7.31,4.76,15.34,11.91,14.74,7.5-.62,153.77-1.31,191.77.63,3.48,1.16,19.37-12.85,28.65-17q54.69,2,109.17,6.83c9.64,5.37,28,21.1,28,21.1l107.18,12.56s26.78-9.43,39.09-12.59q38.84,7.26,77.38,15.81c11.88,3.09,36.63,9.68,36.66-10.67q6.5-76.86,13-153.74A2022.37,2022.37,0,0,0,572.48,585.92Z"/><path class="cls-5" d="M302.36,736.16c60.25-3.71,118.79-5.25,174.56-3.26"/><path class="cls-5" d="M302.36,753c60.25-3.71,118.79-5.25,174.56-3.25"/><path class="cls-3" d="M595.63,503.15q-3.61,43.07-7.24,86.13c-1.6,18.06-18.67,33.8-37.19,32.22l-7.06-.33a5.74,5.74,0,0,1-5.5-6.27,6.3,6.3,0,0,1,6.5-5.73l7.07.34a23.42,23.42,0,0,0,24.18-21q3.61-43.1,7.24-86.18a22,22,0,0,0-20.44-23.64q-36.06-1.91-72.12-2.66c-12.74.36-22.46,11.16-24.22,23.3-4.8,0-7.19,0-12,0,1.49-18.36,18.62-35.36,37.2-35.3q36.09.78,72.12,2.7C582.81,467,597.08,485.27,595.63,503.15Z"/><path class="cls-3" d="M785.85,652.17q52.3,9.23,104.07,20.94l11.52-136.27q-27.12-6.32-54.36-12-27.93,29.83-55.53,60Z"/><path class="cls-3" d="M304.46,711.5a16,16,0,0,1-1.22-32c60.7-4.72,122.51-6.74,183.73-6a16,16,0,0,1-.39,32c-60.26-.74-121.11,1.25-180.86,5.89C305.3,711.49,304.88,711.5,304.46,711.5Z"/><path class="cls-3" d="M871.28,750.53a16.49,16.49,0,0,1-3.39-.36,2014.68,2014.68,0,0,0-321.74-42.73,16,16,0,1,1,1.63-32,2046.46,2046.46,0,0,1,326.86,43.41,16,16,0,0,1-3.36,31.64Z"/><path class="cls-5" d="M792,641.17a2064,2064,0,0,0-213.65-25.64"/><path class="cls-5" d="M730.26,602.26q-53.89-7.66-108.14-12.49"/><path class="cls-5" d="M792,612q-9.69-1.68-19.39-3.27"/><path class="cls-5" d="M321.9,629.33q84.62-5.79,169.35-4.53-1.61,19.1-3.19,38.18-91.69-1.18-183,5.87Q313.44,649.09,321.9,629.33Z"/><path class="cls-5" d="M323.73,640.39q78.67-5.29,157.45-4.55"/><path class="cls-5" d="M319,653q80.51-5.62,161.12-4.9"/><path class="cls-5" d="M416.56,541.56Q489,540.27,561.35,544c.24-15.64-5.84-34.8-23.93-35.78-25.13-1.37-50.93-1.64-76.4-1.7C438.62,506.46,418.86,517.5,416.56,541.56Z"/><path class="cls-3" d="M943.58,520.89c-3.71-1-5.56-1.43-9.27-2.37L917.45,718.09c3.71.91,5.57,1.37,9.28,2.3Q935.16,620.64,943.58,520.89Z"/><path class="cls-3" d="M925.34,663.4q-18.17-4.51-36.41-8.7,2-23.18,3.92-46.35,18.24,4.21,36.4,8.77Q927.3,640.26,925.34,663.4Z"/><path class="cls-2" d="M624.6,790.31q-46-3.79-91.93-5.65-.4-21.67-.79-43.35,46,1.94,92,5.82Q624.22,768.71,624.6,790.31Z"/><path class="cls-2" d="M650.27,777.9c.27,14.17-12.35,24.72-25.87,24.14-14.49-.62-26.55-15.42-26.78-28.68s11.27-26.41,25.84-24.51C637.1,750.63,650,763.72,650.27,777.9Z"/><path class="cls-2" d="M559.73,771c.21,14.21-12.11,25.4-25.72,25.52-14.38.13-26.43-14.39-26.64-27.52-.21-13.34,11-27,25.67-25.88C546.58,744.19,559.52,756.91,559.73,771Z"/><path class="cls-5" d="M554.54,770.74A19.85,19.85,0,0,1,534,791.15c-11.31-.37-21.14-10.52-21.29-22-.16-11.67,9-21.06,20.52-20.65C544.54,748.88,554.37,759.25,554.54,770.74Z"/><path class="cls-5" d="M645,777.38A18.83,18.83,0,0,1,624.3,796.7c-11.4-1-21.2-11.36-21.4-23a18.94,18.94,0,0,1,20.65-19.55C635,755.2,644.76,765.79,645,777.38Z"/><path class="cls-2" d="M890.61,831.77q-43.05-10.12-86.56-18.41,2.88-20.34,5.77-40.67,43.53,8.37,86.53,18.58Q893.49,811.52,890.61,831.77Z"/><path class="cls-2" d="M916.79,823.83c-1.7,13.43-16,21.37-28.13,18.89-13.64-2.78-22.87-17.65-21.11-30.66,1.68-12.38,15.27-23.08,28.19-19.23C908.33,796.57,918.53,810.09,916.79,823.83Z"/><path class="cls-2" d="M831.88,804.45c-1.76,13.43-15.9,22.07-28.33,20.19-13.75-2.07-23-16.68-21.28-29.55,1.72-12.43,15.14-23.75,28.39-20.54C823.39,777.63,833.67,790.8,831.88,804.45Z"/><path class="cls-5" d="M827,803.46a19.34,19.34,0,0,1-22.65,16.16,21.35,21.35,0,0,1-17-23.64c1.45-10.88,12.21-18.48,22.67-16.39A21.58,21.58,0,0,1,827,803.46Z"/><path class="cls-5" d="M911.86,822.58c-1.38,10.85-12.31,17.7-22.49,15.13a22.59,22.59,0,0,1-16.86-24.53A18.4,18.4,0,0,1,895,797.84,22.81,22.81,0,0,1,911.86,822.58Z"/><rect class="cls-8" width="1200" height="1200"/></svg>