<?xml version="1.0"?>
<svg version="1.1" xmlns="http://www.w3.org/2000/svg" width="400" height="100" style="border: dashed 2px #aaa"><path fill="#ff0000" d="M31.859375,69.1875l-1.65625-5.4375l-8.328125,0l-1.65625,5.4375l-5.21875,0l8.0625-22.9375l5.921875,0l8.09375,22.9375l-5.21875,0z M29.046875,59.6875q-2.296875-7.390625-2.5859375-8.359375t-0.4140625-1.53125q-0.515625,2-2.953125,9.890625l5.953125,0z M54.15265625,69.1875l-0.640625-2.234375l-0.25,0q-0.765625,1.21875-2.171875,1.8828125t-3.203125,0.6640625q-3.078125,0-4.640625-1.6484375t-1.5625-4.7421875l0-11.390625l4.765625,0l0,10.203125q0,1.890625,0.671875,2.8359375t2.140625,0.9453125q2,0,2.890625-1.3359375t0.890625-4.4296875l0-8.21875l4.765625,0l0,17.46875l-3.65625,0z M72.3678125,65.703125q1.25,0,3-0.546875l0,3.546875q-1.78125,0.796875-4.375,0.796875q-2.859375,0-4.1640625-1.4453125t-1.3046875-4.3359375l0-8.421875l-2.28125,0l0-2.015625l2.625-1.59375l1.375-3.6875l3.046875,0l0,3.71875l4.890625,0l0,3.578125l-4.890625,0l0,8.421875q0,1.015625,0.5703125,1.5t1.5078125,0.484375z M84.89546875,60.421875q0,2.59375,0.8515625,3.921875t2.7734375,1.328125q1.90625,0,2.7421875-1.3203125t0.8359375-3.9296875q0-2.59375-0.84375-3.890625t-2.765625-1.296875q-1.90625,0-2.75,1.2890625t-0.84375,3.8984375z M96.97359375,60.421875q0,4.265625-2.25,6.671875t-6.265625,2.40625q-2.515625,0-4.4375-1.1015625t-2.953125-3.1640625t-1.03125-4.8125q0-4.28125,2.234375-6.65625t6.28125-2.375q2.515625,0,4.4375,1.09375t2.953125,3.140625t1.03125,4.796875z M118.75125,69.1875l-4.765625,0l0-10.203125q0-1.890625-0.6328125-2.8359375t-1.9921875-0.9453125q-1.828125,0-2.65625,1.34375t-0.828125,4.421875l0,8.21875l-4.765625,0l0-17.46875l3.640625,0l0.640625,2.234375l0.265625,0q0.703125-1.203125,2.03125-1.8828125t3.046875-0.6796875q3.921875,0,5.3125,2.5625l0.421875,0q0.703125-1.21875,2.0703125-1.890625t3.0859375-0.671875q2.96875,0,4.4921875,1.5234375t1.5234375,4.8828125l0,11.390625l-4.78125,0l0-10.203125q0-1.890625-0.6328125-2.8359375t-1.9921875-0.9453125q-1.75,0-2.6171875,1.25t-0.8671875,3.96875l0,8.765625z M147.82578125,69.1875l-0.921875-2.375l-0.125,0q-1.203125,1.515625-2.4765625,2.1015625t-3.3203125,0.5859375q-2.515625,0-3.9609375-1.4375t-1.4453125-4.09375q0-2.78125,1.9453125-4.1015625t5.8671875-1.4609375l3.03125-0.09375l0-0.765625q0-2.65625-2.71875-2.65625q-2.09375,0-4.921875,1.265625l-1.578125-3.21875q3.015625-1.578125,6.6875-1.578125q3.515625,0,5.390625,1.53125t1.875,4.65625l0,11.640625l-3.328125,0z M146.41953125,61.09375l-1.84375,0.0625q-2.078125,0.0625-3.09375,0.75t-1.015625,2.09375q0,2.015625,2.3125,2.015625q1.65625,0,2.6484375-0.953125t0.9921875-2.53125l0-1.4375z M165.6190625,65.703125q1.25,0,3-0.546875l0,3.546875q-1.78125,0.796875-4.375,0.796875q-2.859375,0-4.1640625-1.4453125t-1.3046875-4.3359375l0-8.421875l-2.28125,0l0-2.015625l2.625-1.59375l1.375-3.6875l3.046875,0l0,3.71875l4.890625,0l0,3.578125l-4.890625,0l0,8.421875q0,1.015625,0.5703125,1.5t1.5078125,0.484375z M174.14671875,47.203125q0-2.328125,2.59375-2.328125t2.59375,2.328125q0,1.109375-0.6484375,1.7265625t-1.9453125,0.6171875q-2.59375,0-2.59375-2.34375z M179.11546875,69.1875l-4.765625,0l0-17.46875l4.765625,0l0,17.46875z M193.40875,69.5q-8.15625,0-8.15625-8.953125q0-4.453125,2.21875-6.8046875t6.359375-2.3515625q3.03125,0,5.4375,1.1875l-1.40625,3.6875q-1.125-0.453125-2.09375-0.7421875t-1.9375-0.2890625q-3.71875,0-3.71875,5.28125q0,5.125,3.71875,5.125q1.375,0,2.546875-0.3671875t2.34375-1.1484375l0,4.078125q-1.15625,0.734375-2.3359375,1.015625t-2.9765625,0.28125z M216.06140625,69.1875l-0.921875-2.375l-0.125,0q-1.203125,1.515625-2.4765625,2.1015625t-3.3203125,0.5859375q-2.515625,0-3.9609375-1.4375t-1.4453125-4.09375q0-2.78125,1.9453125-4.1015625t5.8671875-1.4609375l3.03125-0.09375l0-0.765625q0-2.65625-2.71875-2.65625q-2.09375,0-4.921875,1.265625l-1.578125-3.21875q3.015625-1.578125,6.6875-1.578125q3.515625,0,5.390625,1.53125t1.875,4.65625l0,11.640625l-3.328125,0z M214.65515625,61.09375l-1.84375,0.0625q-2.078125,0.0625-3.09375,0.75t-1.015625,2.09375q0,2.015625,2.3125,2.015625q1.65625,0,2.6484375-0.953125t0.9921875-2.53125l0-1.4375z"/><path fill="#01060a" d="M252.05421875,69.1875l-5.5-17.921875l-0.140625,0q0.296875,5.46875,0.296875,7.296875l0,10.625l-4.328125,0l0-22.84375l6.59375,0l5.40625,17.46875l0.09375,0l5.734375-17.46875l6.59375,0l0,22.84375l-4.515625,0l0-10.8125q0-0.765625,0.0234375-1.765625t0.2109375-5.3125l-0.140625,0l-5.890625,17.890625l-4.4375,0z M278.175625,60.421875q0,2.59375,0.8515625,3.921875t2.7734375,1.328125q1.90625,0,2.7421875-1.3203125t0.8359375-3.9296875q0-2.59375-0.84375-3.890625t-2.765625-1.296875q-1.90625,0-2.75,1.2890625t-0.84375,3.8984375z M290.25375,60.421875q0,4.265625-2.25,6.671875t-6.265625,2.40625q-2.515625,0-4.4375-1.1015625t-2.953125-3.1640625t-1.03125-4.8125q0-4.28125,2.234375-6.65625t6.28125-2.375q2.515625,0,4.4375,1.09375t2.953125,3.140625t1.03125,4.796875z M306.10953125,51.390625q3.09375,0,4.84375,2.4140625t1.75,6.6171875q0,4.328125-1.8046875,6.703125t-4.9140625,2.375q-3.078125,0-4.828125-2.234375l-0.328125,0l-0.796875,1.921875l-3.640625,0l0-24.3125l4.765625,0l0,5.65625q0,1.078125-0.1875,3.453125l0.1875,0q1.671875-2.59375,4.953125-2.59375z M304.57828125,55.203125q-1.765625,0-2.578125,1.0859375t-0.84375,3.5859375l0,0.515625q0,2.8125,0.8359375,4.03125t2.6484375,1.21875q1.46875,0,2.3359375-1.3515625t0.8671875-3.9296875t-0.875-3.8671875t-2.390625-1.2890625z M318.6371875,47.203125q0-2.328125,2.59375-2.328125t2.59375,2.328125q0,1.109375-0.6484375,1.7265625t-1.9453125,0.6171875q-2.59375,0-2.59375-2.34375z M323.6059375,69.1875l-4.765625,0l0-17.46875l4.765625,0l0,17.46875z M335.57109375,69.1875l-4.765625,0l0-24.3125l4.765625,0l0,24.3125z M342.5675,47.203125q0-2.328125,2.59375-2.328125t2.59375,2.328125q0,1.109375-0.6484375,1.7265625t-1.9453125,0.6171875q-2.59375,0-2.59375-2.34375z M347.53625,69.1875l-4.765625,0l0-17.46875l4.765625,0l0,17.46875z M362.09515625,65.703125q1.25,0,3-0.546875l0,3.546875q-1.78125,0.796875-4.375,0.796875q-2.859375,0-4.1640625-1.4453125t-1.3046875-4.3359375l0-8.421875l-2.28125,0l0-2.015625l2.625-1.59375l1.375-3.6875l3.046875,0l0,3.71875l4.890625,0l0,3.578125l-4.890625,0l0,8.421875q0,1.015625,0.5703125,1.5t1.5078125,0.484375z M368.3259375,51.71875l5.21875,0l3.296875,9.828125q0.421875,1.28125,0.578125,3.03125l0.09375,0q0.171875-1.609375,0.671875-3.03125l3.234375-9.828125l5.109375,0l-7.390625,19.703125q-1.015625,2.734375-2.8984375,4.09375t-4.3984375,1.359375q-1.234375,0-2.421875-0.265625l0-3.78125q0.859375,0.203125,1.875,0.203125q1.265625,0,2.2109375-0.7734375t1.4765625-2.3359375l0.28125-0.859375z"/></svg>
