<svg id="Layer_1" data-name="Layer 1" xmlns="http://www.w3.org/2000/svg" width="300" height="48" viewBox="0 0 200 32"><defs><style>.cls-1{fill:#dd1f1f;}</style></defs><polygon class="cls-1" points="21.3 10.79 21.3 10.79 20.99 9.99 17.67 1.51 14.13 10.56 14.13 10.56 8.7 24.44 8.7 24.44 8.7 24.44 16.74 17.22 17.67 16.39 18.61 17.23 18.73 17.34 26.73 24.44 21.3 10.79"/><polygon points="31.44 30.49 21.52 10.01 26.73 24.44 18.54 17.62 17.67 24.44 16.81 17.62 8.7 24.44 13.83 10.01 3.9 30.49 3.9 30.49 12.87 22.43 15.67 24.95 17.67 26.75 19.67 24.95 22.47 22.43 31.44 30.49 31.44 30.49"/><path class="cls-1" d="M35.89,19H34l-.38,1.21H32.27l2-6h1.37l2,6h-1.4Zm-1.57-1.11h1.24l-.62-2.19Z"/><path class="cls-1" d="M42.24,15.61v4.62H41.12l0-.57a1.59,1.59,0,0,1-1.36.68c-1,0-1.47-.56-1.47-1.67V15.61h1.31v2.95c0,.45.17.64.54.64a.85.85,0,0,0,.82-.61v-3Z"/><path class="cls-1" d="M45.86,19.2v1h-1c-.94,0-1.34-.44-1.34-1.5V16.6h-.67v-1h.69l.08-1.15h1.21v1.15h1v1h-1v2c0,.43.1.55.48.55Z"/><path class="cls-1" d="M46.41,18.35V17.5c0-1.33.7-2,2.1-2s2.1.66,2.1,2v.85c0,1.32-.7,2-2.1,2S46.41,19.67,46.41,18.35Zm2.89,0v-.8c0-.67-.23-.95-.79-.95s-.79.28-.79.95v.8c0,.67.23,1,.79,1S49.3,19,49.3,18.32Z"/><path class="cls-1" d="M58.05,17.09v3.14H56.74v-3c0-.41-.18-.59-.5-.59s-.56.18-.78.63v3h-1.3v-3c0-.41-.19-.59-.51-.59s-.57.18-.77.63v3H51.57V15.61h1.12l0,.57A1.49,1.49,0,0,1,54,15.51a1.29,1.29,0,0,1,1.24.65,1.52,1.52,0,0,1,1.32-.65C57.53,15.51,58.05,16.05,58.05,17.09Z"/><path class="cls-1" d="M62.87,17.26v3H61.76l0-.57a1.6,1.6,0,0,1-1.39.68,1.33,1.33,0,0,1-1.46-1.44c0-1,.61-1.51,1.84-1.51h.85v-.15c0-.48-.19-.71-.65-.71s-.63.21-.65.52H59c.07-1,.69-1.54,2-1.54S62.87,16.05,62.87,17.26Zm-1.31,1.53v-.53H61c-.59,0-.79.2-.79.54s.2.51.57.51A.91.91,0,0,0,61.56,18.79Z"/><path class="cls-1" d="M66.37,19.2v1h-1c-1,0-1.35-.44-1.35-1.5V16.6h-.67v-1h.7l.07-1.15h1.21v1.15h1v1h-1v2c0,.43.11.55.49.55Z"/><path class="cls-1" d="M67,13.84h1.38V15H67Zm0,1.77h1.31v4.62H67.08Z"/><path class="cls-1" d="M69.35,18.37v-.9a1.76,1.76,0,0,1,2-2c1.29,0,2,.61,2,1.86H72.1c0-.53-.22-.8-.71-.8s-.73.27-.73.91v.89c0,.63.23.91.73.91s.69-.28.71-.81h1.24c0,1.26-.68,1.87-2,1.87A1.77,1.77,0,0,1,69.35,18.37Z"/><path class="cls-1" d="M78,17.26v3H76.9l-.05-.57a1.57,1.57,0,0,1-1.38.68A1.32,1.32,0,0,1,74,18.9c0-1,.61-1.51,1.84-1.51h.85v-.15c0-.48-.19-.71-.66-.71s-.63.21-.64.52H74.13c.07-1,.69-1.54,2-1.54S78,16.05,78,17.26ZM76.7,18.79v-.53h-.61c-.6,0-.79.2-.79.54s.19.51.56.51A.91.91,0,0,0,76.7,18.79Z"/><path d="M87.76,20.23H86.44V15.69l-1.5,4.54h-.89l-1.5-4.54v4.54H81.3v-6h1.94l1.28,3.93,1.28-3.93h2Z"/><path d="M88.82,18.35V17.5c0-1.33.7-2,2.1-2s2.1.66,2.1,2v.85c0,1.32-.7,2-2.1,2S88.82,19.67,88.82,18.35Zm2.89,0v-.8c0-.67-.23-.95-.79-.95s-.79.28-.79.95v.8c0,.67.23,1,.79,1S91.71,19,91.71,18.32Z"/><path d="M98.13,17.41v1c0,1.25-.59,1.9-1.65,1.9a1.57,1.57,0,0,1-1.35-.67l0,.56H94V13.77h1.31V16a1.57,1.57,0,0,1,1.19-.47C97.54,15.51,98.13,16.16,98.13,17.41Zm-1.31,0c0-.6-.22-.84-.64-.84a1,1,0,0,0-.89.71v1.3a1,1,0,0,0,.89.7c.42,0,.64-.25.64-.85Z"/><path d="M99.07,13.84h1.38V15H99.07Zm0,1.77h1.31v4.62H99.1Z"/><path d="M101.54,13.77h1.31v6.46h-1.31Z"/><path d="M104,13.84h1.38V15H104Zm0,1.77h1.31v4.62H104Z"/><path d="M108.91,19.2v1h-1c-1,0-1.35-.44-1.35-1.5V16.6h-.67v-1h.7l.07-1.15h1.21v1.15h1v1h-1v2c0,.43.11.55.49.55Z"/><path d="M113.43,15.61l-1.63,5c-.31.95-.63,1.21-1.53,1.21h-.67v-1h.52c.24,0,.35-.07.44-.34l.1-.29-1.58-4.57h1.39l.86,2.89.79-2.89Z"/></svg>