<svg id="Layer_1" data-name="Layer 1" xmlns="http://www.w3.org/2000/svg" viewBox="0 0 1200 1200"><defs><style>.cls-1{fill:#e9e8e8;}.cls-2{fill:#1d252e;}.cls-3{fill:#9dd5c0;}.cls-4,.cls-6,.cls-7,.cls-8{fill:none;}.cls-4,.cls-6,.cls-7{stroke:#1d252e;stroke-linecap:round;stroke-linejoin:round;}.cls-4{stroke-width:2.91px;}.cls-5{fill:#fff;}.cls-6{stroke-width:2.91px;}.cls-7{stroke-width:1.46px;}</style></defs><path id="Path-141" class="cls-1" d="M655.36,878.91c-133.6-1-456,19.2-500.12-151.74S486.47,138.68,775.82,410.22c108.71,102,285.16,238.32,271.77,312.95C1025.34,847.19,738.78,879.53,655.36,878.91Z"/><rect class="cls-2" x="387.86" y="653.3" width="141.11" height="84.9"/><rect class="cls-2" x="880.14" y="653.3" width="141.11" height="84.9"/><path class="cls-3" d="M637.87,501.6v9.75H587.69V501.6a8.52,8.52,0,0,1,8.52-8.51h33.15A8.52,8.52,0,0,1,637.87,501.6Z"/><path class="cls-3" d="M1088.09,715.74h-4V684.39s-5.83-12.48-11.5-24.56c-4.58-9.77-9.07-19.26-10.28-21.7a10.43,10.43,0,0,0-2.87-2.13c-25-15.29-206.67-100.15-364.54-123.06-147-21.33-298,33.71-334.6,48.28-5.42,2.16-8.32,3.43-8.32,3.43-12,29.49-19.15,53.79-22.93,73.74-8.18,43.25-.71,66.13,6.24,77.35h-.95v18l3,.79L389,748.17l5.06,1.34V715.74h-4.53a70.77,70.77,0,0,1,138,4h-1.41v24.49H882.66V719.78h-1.41a70.77,70.77,0,0,1,138-4h-.49v32.57h53.71a19.7,19.7,0,0,0,19.68-19.68V715.74Z"/><path class="cls-2" d="M655.76,525.37l21,74.1H933.43C846.28,563,764.67,524.14,655.76,525.37Z"/><path class="cls-2" d="M639.67,525.37l14.85,74.1H382.26s38.33-44.45,92.81-59.28C515.91,529.08,591.41,524.14,639.67,525.37Z"/><path class="cls-4" d="M1068.7,659.83s-6,.38-15.42.38c-29.86,0-30.67-24.21-30.67-24.21h25"/><polyline class="cls-4" points="358.36 565.35 365.29 564.58 345.93 629.95 335.05 635.38"/><line class="cls-4" x1="353.06" y1="571.86" x2="347.28" y2="588.2"/><line class="cls-4" x1="345.51" y1="592.54" x2="343.4" y2="598.49"/><line class="cls-4" x1="1039.05" y1="641.69" x2="1046.28" y2="652.83"/><line class="cls-4" x1="1033.71" y1="641.69" x2="1031.19" y2="641.69"/><circle class="cls-5" cx="460.1" cy="733.39" r="58.47"/><path class="cls-6" d="M402.42,743a58.47,58.47,0,0,0,115.36,0"/><circle class="cls-3" cx="460.1" cy="733.39" r="38.05"/><circle class="cls-5" cx="950.7" cy="733.39" r="58.47"/><path class="cls-6" d="M892.84,741.84a58.47,58.47,0,0,0,115.55,1"/><circle class="cls-3" cx="950.7" cy="733.39" r="38.05"/><path class="cls-4" d="M926.17,712.13a32.45,32.45,0,0,0,23.13,53.68"/><path class="cls-4" d="M981.71,723.79a32.46,32.46,0,0,0-49.34-17.19"/><path class="cls-4" d="M481.51,709.61a32.34,32.34,0,0,0-20.74-8.68"/><path class="cls-4" d="M483.91,754.61a32.32,32.32,0,0,0,7.84-18.85"/><path class="cls-4" d="M428.36,743a32.48,32.48,0,0,0,49.35,17.18"/><line class="cls-4" x1="535.2" y1="719.78" x2="873.62" y2="719.78"/><line class="cls-4" x1="340.4" y1="715.9" x2="383.05" y2="715.9"/><line class="cls-4" x1="1025.54" y1="719.78" x2="1082.66" y2="719.78"/><line class="cls-4" x1="648.01" y1="526.44" x2="688.93" y2="709.61"/><line class="cls-4" x1="428.36" y1="616.65" x2="483.91" y2="616.65"/><line class="cls-4" x1="698.25" y1="616.65" x2="753.79" y2="616.65"/><path class="cls-4" d="M594.58,508.9a179.57,179.57,0,0,1,34.23,0"/><path id="Path-30" class="cls-5" d="M177.61,496.22c-12.73-7.89-41.85-47.76-44.72-53.53-.43-5.92-7.59-34-20.27-26.92s3.47,26.13,8.84,32.1c7.46,19.88,21.42,54.11,45.62,66.85C171.32,511.39,174.93,503.84,177.61,496.22Z"/><path id="Path-30-2" data-name="Path-30" class="cls-7" d="M126.47,422.7c-3.35-5.7-8.22-10.06-13.85-6.93-12.69,7.05,3.47,26.13,8.84,32.1,7.46,19.88,18.65,52.48,42.86,65.22"/><path id="Path-30-3" data-name="Path-30" class="cls-7" d="M174.2,493.82c-12.73-7.89-38.44-45.36-41.31-51.13a58,58,0,0,0-1.61-7.86"/><path id="Path-36" class="cls-5" d="M193.74,487.55l7.48-2.16,1.71-15.05c-3.31-3.7-2.72-3.27-3.93-7.92l-3.57-.41-1.77-3.37,1-3.57,1.13-1.06-1.44-6.25,23.8-1.57,1.38.78,3.1,6.2,1.63,7-1.54,5.95c-2.74,3.8-2.7,3.72-6.69,6.15l-1.46-.17L213.19,486l10.3-.35-9.58,10.67-20.42.31Z"/><path id="Path-20" class="cls-7" d="M196.69,486.5q2.76-.72,4.53-1.11c.27-4.52.85-9.53,1.71-15.05-3.06-2.92-3.11-3.52-3.9-7.89-7.64.52-6.71-10.45.46-8.43"/><path id="Path-21" class="cls-7" d="M221.07,450.44c6.28,8.78,2,20.61-7,22L213.19,486l5.19-.22"/><path id="Path-32" class="cls-5" d="M149.11,752c-1.32,7.87-8.35,27.13-8.35,27.13s38,13.71,39.79,12.67c2.29-1.34-9.56-11.07-16.8-28l1.94-8.34"/><path id="Path-33" class="cls-5" d="M233.23,752.77l-.4,33.44s40.29,2.08,41.58.48c1.65-2.06-12.87-8.49-25.79-24.91l.85-9"/><path id="Path-31" class="cls-2" d="M170.85,584.55,168.4,674l-24,75.68c12.5,5.25,20.56,11,30.26,8.44l26.65-73.88L202.91,623a9.13,9.13,0,0,0,6.23-1.16l11.78,64.62,9.33,65.59c13.39,2.38,17.33,3.41,29.09,1L250,684.3,236.35,592Z"/><path id="Path-22" class="cls-7" d="M195.35,452.08a8,8,0,0,1,4.88-.44"/><path id="Path-23" class="cls-2" d="M194.6,450.39a16.42,16.42,0,0,1,6.64-1c.25-.8.57-1.7.94-2.69q5.26,6.92,17.39.74c15-9.62-6.71-33.74-19.84-12.69C190.84,435.36,191.58,441.62,194.6,450.39Z"/><path class="cls-5" d="M269.53,534.24l-7.12-10.55-13.75,18.36,9.34,9.89s1.89,8.9,9.92,4.49c6.72,1.25,44.72-36.32,44.72-36.32l2.46-3.2q11.59-9.36,15.89-19.66c4.29-10.29-6.46-8.29-11.37-4.32s-7.76,9.73-8.87,12.46a16.94,16.94,0,0,1-4.43,7c-7,4.74-29.56,16.27-36.79,21.85"/><path id="Path-26" class="cls-7" d="M265.44,537.06c7.23-5.58,33.87-19.93,40.88-24.67a16.94,16.94,0,0,0,4.43-7c1.11-2.73,3.95-8.49,8.87-12.46s15.66-6,11.37,4.32q-4.29,10.29-15.89,19.66l-2.46,3.2s-36,37.43-49.14,37.57c-3.73,0-5.5-5.74-5.5-5.74l-8.58-9.37"/><path id="Path-24" class="cls-3" d="M192.93,488.06c7,11.29,25.73,8,28.57-1.37,3.75-1.06,19.28,2.72,26.86,6.88,6.35,7.94,19.4,22.38,21.17,29.49-7.94,2.91-16.78,17.5-24.42,24.78l-5.58,44.23c-34.4,6.6-40.65,6.74-71.8-7.5l2.68-58.77-26-18.75c10.41-7.16,22.56-16.45,23.52-23.68C167.93,483.37,170.76,486.1,192.93,488.06Z"/><line id="Path-29" class="cls-7" x1="169.75" y1="548.4" x2="171.03" y2="525.62"/><path id="Path-32-2" data-name="Path-32" class="cls-7" d="M149.11,752c-1.32,7.87-8.35,27.13-8.35,27.13s38,13.71,39.79,12.67c2.29-1.34-9.56-11.07-16.8-28"/><path id="Path-33-2" data-name="Path-33" class="cls-7" d="M233.23,752.77l-.4,33.44s40.29,2.08,41.58.48c1.65-2.06-12.87-8.49-25.79-24.91"/><path class="cls-7" d="M246.67,519.26s-.41,23.12-2.41,38.55"/><path class="cls-7" d="M232.19,569.62c-10.57,1.32-11.87,8.85-22.05,10.52"/><line class="cls-7" x1="264.08" y1="525.8" x2="270" y2="533.89"/><polygon class="cls-3" points="318.58 477.69 315.94 506.49 327.66 516.06 329.24 514.64 331.98 486.3 320.28 476.74 318.58 477.69"/><polyline class="cls-7" points="321.16 480.68 329.18 487.24 326.94 512.12"/><polyline class="cls-7" points="319.16 500.85 318.74 505.42 320.73 507.05"/><path id="Path-27" class="cls-5" d="M311.44,509.92q11.28-6.9,11.38-10.2t-6.5-.25S307.51,509.92,311.44,509.92Z"/><path id="Path-27-2" data-name="Path-27" class="cls-7" d="M316.32,499.47q6.6-3,6.5.25t-11.38,10.2"/><path id="Path-27-3" data-name="Path-27" class="cls-7" d="M126.47,423.24q2.94-7.75,5.5-5t-1.13,17.43"/><circle class="cls-3" cx="387.86" cy="491.51" r="24.95"/><path class="cls-3" d="M387.86,466.56a25,25,0,1,0,24.94,24.95A25,25,0,0,0,387.86,466.56Z"/><polygon class="cls-5" points="381.58 503.14 373.62 495.18 376.66 492.14 381.58 497.06 399.06 479.58 402.1 482.62 381.58 503.14"/><line class="cls-4" x1="1021.25" y1="791.85" x2="839.49" y2="791.85"/><line class="cls-4" x1="310.43" y1="791.85" x2="89.13" y2="791.85"/><line class="cls-4" x1="551.66" y1="791.85" x2="382.26" y2="791.85"/><rect class="cls-8" width="1200" height="1200"/></svg>